<?xml version="1.0" encoding="UTF-8" standalone="no"?>
<!DOCTYPE svg PUBLIC "-//W3C//DTD SVG 1.1//EN" "http://www.w3.org/Graphics/SVG/1.1/DTD/svg11.dtd">
<svg width="100%" height="100%" viewBox="0 0 1000 1000" version="1.1" xmlns="http://www.w3.org/2000/svg" xmlns:xlink="http://www.w3.org/1999/xlink" xml:space="preserve" xmlns:serif="http://www.serif.com/" style="fill-rule:evenodd;clip-rule:evenodd;stroke-linejoin:round;stroke-miterlimit:2;">
    <rect x="0" y="0" width="1000" height="1000" style="fill:url(#_Radial1);"/>
    <rect x="0" y="0" width="1000" height="1000"/>
    <g transform="matrix(1,0,0,1,318.400259,103.380202)">
        <path d="M500,150.623L500,296.128C500,336.281 467.401,368.88 427.248,368.88L281.743,368.88C241.59,368.88 208.99,336.281 208.99,296.128L208.99,150.623C208.99,110.47 241.59,77.871 281.743,77.871L427.248,77.871C467.401,77.871 500,110.47 500,150.623Z" style="fill:white;"/>
    </g>
    <g transform="matrix(1,0,0,1,318.400259,449.869006)">
        <path d="M211.764,550.131L208.99,77.871L427.248,77.871C467.401,77.871 500,110.47 500,150.623L500,296.128C500,336.281 467.401,368.88 427.248,368.88L269.393,368.88L272.166,550.131L211.764,550.131Z" style="fill:white;"/>
    </g>
    <g transform="matrix(1,-0,0,1,-27.390672,103.380202)">
        <path d="M208.99,193.174L208.99,150.623C208.99,110.47 241.59,77.871 281.743,77.871L500,77.871L500,193.174L208.99,193.174ZM500,253.577L500,296.128C500,336.281 467.401,368.88 427.248,368.88L208.99,368.88L208.99,253.577L500,253.577Z" style="fill:white;"/>
    </g>
    <g transform="matrix(1,0,0,1,-27.390672,449.869006)">
        <path d="M500,150.623L500,368.88L281.743,368.88C241.59,368.88 208.99,336.281 208.99,296.128L208.99,150.623C208.99,110.47 241.59,77.871 281.743,77.871L427.248,77.871C467.401,77.871 500,110.47 500,150.623Z" style="fill:white;"/>
    </g>
    <defs>
        <radialGradient id="_Radial1" cx="0" cy="0" r="1" gradientUnits="userSpaceOnUse" gradientTransform="matrix(663.20549,0,0,663.205258,500.000175,500)"><stop offset="0" style="stop-color:rgb(252,134,0);stop-opacity:1"/><stop offset="0.45" style="stop-color:rgb(234,114,32);stop-opacity:1"/><stop offset="1" style="stop-color:rgb(191,64,109);stop-opacity:1"/></radialGradient>
    </defs>
</svg>
