<?xml version="1.0" encoding="UTF-8" standalone="no"?>
<!DOCTYPE svg PUBLIC "-//W3C//DTD SVG 1.1//EN" "http://www.w3.org/Graphics/SVG/1.1/DTD/svg11.dtd">
<svg width="100%" height="100%" viewBox="0 0 1000 1000" version="1.1" xmlns="http://www.w3.org/2000/svg" xmlns:xlink="http://www.w3.org/1999/xlink" xml:space="preserve" xmlns:serif="http://www.serif.com/" style="fill-rule:evenodd;clip-rule:evenodd;stroke-linejoin:round;stroke-miterlimit:2;">
    <g transform="matrix(1.237076,0,0,1.237076,-118.53779,-118.53779)">
        <g transform="matrix(33.681585,0,0,33.681585,423.62259,109.707778)">
            <path d="M11.327,6.857C11.327,9.276 9.363,11.241 6.944,11.241C4.525,11.241 2.561,9.276 2.561,6.857C2.561,4.438 4.525,2.474 6.944,2.474C9.363,2.474 11.327,4.438 11.327,6.857Z" style="fill:white;"/>
        </g>
        <g transform="matrix(33.681585,0,0,33.681585,104.95703,109.707778)">
            <path d="M2.561,6.857C2.561,4.438 4.525,2.474 6.944,2.474C8.263,2.474 9.447,3.058 10.251,3.981L8.474,3.981C8.052,3.981 7.709,4.324 7.709,4.747C7.709,5.169 8.052,5.512 8.474,5.512L11.117,5.512C11.253,5.936 11.327,6.388 11.327,6.857C11.327,9.276 9.363,11.241 6.944,11.241C5.063,11.241 3.457,10.053 2.835,8.387L6.944,8.387C7.366,8.387 7.709,8.044 7.709,7.622C7.709,7.2 7.366,6.857 6.944,6.857L2.561,6.857Z" style="fill:white;"/>
        </g>
        <g transform="matrix(33.681585,0,0,33.681585,95.820976,95.820976)">
            <path d="M12.401,24L12.401,16.731C12.401,14.311 14.366,12.347 16.785,12.347C19.204,12.347 21.168,14.311 21.168,16.731C21.168,19.15 19.204,21.114 16.785,21.114L13.899,21.114L13.899,24L12.401,24Z" style="fill:white;"/>
        </g>
        <g transform="matrix(33.681585,0,0,33.681585,104.95703,428.373338)">
            <path d="M11.327,6.857L11.327,11.241L6.944,11.241C4.525,11.241 2.561,9.276 2.561,6.857C2.561,4.438 4.525,2.474 6.944,2.474C9.363,2.474 11.327,4.438 11.327,6.857Z" style="fill:white;"/>
        </g>
    </g>
    <g transform="matrix(1.237076,0,0,1.237076,-118.53779,-118.53779)">
        <path d="M513.521,904.179L297.91,904.179C186.374,904.179 95.821,813.626 95.821,702.09L95.821,297.91C95.821,186.374 186.374,95.821 297.91,95.821L702.09,95.821C813.626,95.821 904.179,186.374 904.179,297.91L904.179,702.09C904.179,813.626 813.626,904.179 702.09,904.179L563.952,904.179L563.952,806.971L661.16,806.971C742.644,806.971 808.799,740.817 808.799,659.333C808.799,577.849 742.644,511.694 661.16,511.694C579.676,511.694 513.521,577.849 513.521,659.333L513.521,904.179ZM805.144,340.667C805.144,259.183 738.99,193.029 657.506,193.029C576.022,193.029 509.867,259.183 509.867,340.667C509.867,422.151 576.022,488.306 657.506,488.306C738.99,488.306 805.144,422.151 805.144,340.667ZM486.479,659.333C486.479,577.849 420.324,511.694 338.84,511.694C257.356,511.694 191.201,577.849 191.201,659.333C191.201,740.817 257.356,806.971 338.84,806.971L486.479,806.971L486.479,659.333ZM191.201,340.667L338.84,340.667C353.062,340.667 364.609,352.214 364.609,366.436C364.609,380.658 353.062,392.204 338.84,392.204L200.46,392.204C221.388,448.307 275.48,488.306 338.84,488.306C420.324,488.306 486.479,422.151 486.479,340.667C486.479,324.86 483.989,309.629 479.381,295.346L390.377,295.346C376.155,295.346 364.609,283.8 364.609,269.578C364.609,255.356 376.155,243.809 390.377,243.809L450.231,243.809C423.155,212.703 383.277,193.029 338.84,193.029C257.356,193.029 191.201,259.183 191.201,340.667Z" style="fill:rgb(250,115,22);"/>
    </g>
</svg>
